[Header]
FileType HTR
DataType HTRS
FileVersion 1
NumSegments 22
NumFrames 4
DataFrameRate 24
EulerRotationOrder ZYX
CalibrationUnits mm
RotationUnits Degrees
GlobalAxisofGravity Y
BoneLengthAxis Y
ScaleFactor 1.0
[SegmentNames&Hierarchy]
reference	GLOBAL
Hips	reference
Spine	Hips
Spine1	Spine
Neck	Spine1
Head	Neck
LeftShoulder	Spine1
LeftArm	LeftShoulder
LeftForeArm	LeftArm
LeftHand	LeftForeArm
RightShoulder	Spine1
RightArm	RightShoulder
RightForeArm	RightArm
RightHand	RightForeArm
LeftUpLeg	Hips
LeftLeg	LeftUpLeg
LeftFoot	LeftLeg
LeftToeBase	LeftFoot
RightUpLeg	Hips
RightLeg	RightUpLeg
RightFoot	RightLeg
RightToeBase	RightFoot
[BasePosition]
reference	0	0	0	0	0	0	1
Hips	0	0	0	0	0	0	1
Spine	0	0	0	0	-0	90	1
Spine1	0	0	0	0	0	0	1
Neck	0	0	0	-7.352327771	-7.352327771	90	1
Head	0	0	0	0	-0	90	1
LeftShoulder	0	0	0	0	0	0	1
LeftArm	0	0	0	0	0	0	1
LeftForeArm	0	0	0	0	0	0	1
LeftHand	0	0	0	0	0	0	1
RightShoulder	0	0	0	0	-0	180	1
RightArm	0	0	0	0	-0	180	1
RightForeArm	0	0	0	0	-0	180	1
RightHand	0	0	0	0	-0	180	1
LeftUpLeg	0	0	0	0	-0	-90	1
LeftLeg	0	0	0	0	-0	-90	1
LeftFoot	0	0	0	66.57146043	-66.57146043	-90	1
LeftToeBase	0	0	0	0	-90	0	1
RightUpLeg	0	0	0	0	-0	-90	1
RightLeg	0	0	0	0	-0	-90	1
RightFoot	0	0	0	66.57146043	-66.57146043	-90	1
RightToeBase	0	0	0	0	-90	0	1
[reference]
28	0	0	0	0	-0	0	1.0
29	0	0	0	0	-0	0	1.0
30	0	0	0	0	-0	0	1.0
31	0	0	0	0	-0	0	1.0
[Hips]
28	3.425810575	8.576710701	1.085920215	1.864798546	-140.530899	-0.6500701904	1.0
29	3.221719742	8.539779663	1.091482401	1.094871879	-142.196228	-0.4672857225	1.0
30	3.100136757	8.334316254	1.097022295	1.200724363	-142.0207825	-0.7468546033	1.0
31	3.08397913	8.246468544	1.102541924	2.097320557	-140.8854065	-0.6674041748	1.0
[Spine]
28	0	0.7457100153	0	-6.221008778	0.2151021361	-90.08262634	1.0
29	0	0.7457100153	0	-5.980665684	0.1711211801	-90.60517883	1.0
30	0	0.7457100153	0	-6.498857498	-0.49542135	-91.28318787	1.0
31	0	0.7457100153	0	-7.649498463	-0.9158985019	-91.32754517	1.0
[Spine1]
28	0	2.140589952	0	1.568967104	-0.009231949225	5.480240345	1.0
29	0	2.140589952	0	0.7117190957	0.02318938635	6.29724884	1.0
30	0	2.140589952	0	2.277968168	-0.2837667763	6.97051239	1.0
31	0	2.140589952	0	4.221691132	-0.5446871519	6.630804062	1.0
[Neck]
28	0	2.32246995	0	-10.22502518	19.50605392	-90.98709106	1.0
29	0	2.32246995	0	-8.047356606	19.81503105	-89.49777222	1.0
30	0	2.32246995	0	-9.599422455	19.74293709	-89.84094238	1.0
31	0	2.32246995	0	-13.12065315	19.4333477	-90.05093384	1.0
[Head]
28	0	1.409579992	0.1818799973	-1.8473593	13.13010979	-94.1662674	1.0
29	0	1.409579992	0.1818799973	-3.39177227	13.34378624	-94.64094543	1.0
30	0	1.409579992	0.1818799973	-4.537047863	13.183815	-94.30111694	1.0
31	0	1.409579992	0.1818799973	-4.088628769	12.91217327	-93.92424774	1.0
[LeftShoulder]
28	0.3668199778	1.946700096	-0.02662999928	-16.09502792	-11.68894291	1.72781527	1.0
29	0.3668199778	1.946700096	-0.02662999928	-16.13863182	-11.8084631	1.007333875	1.0
30	0.3668199778	1.946700096	-0.02662999928	-16.49625397	-12.02728367	0.7062795162	1.0
31	0.3668199778	1.946700096	-0.02662999928	-16.78595161	-12.47957325	0.8659989238	1.0
[LeftArm]
28	1.140689969	0	0	36.495224	-2.943851471	-57.95472717	1.0
29	1.140689969	0	0	36.81951141	-1.477294445	-58.65898132	1.0
30	1.140689969	0	0	36.37304306	-1.009281397	-60.47572327	1.0
31	1.140689969	0	0	36.61613464	-1.242555261	-62.04539108	1.0
[LeftForeArm]
28	2.749800205	0	0	58.39941025	-138.394104	-23.0307045	1.0
29	2.749800205	0	0	58.85479736	-137.9509735	-23.63180161	1.0
30	2.749800205	0	0	58.7286911	-137.6775055	-23.73937225	1.0
31	2.749800205	0	0	59.20858002	-137.8582458	-23.86303711	1.0
[LeftHand]
28	2.295179844	0	0	-1.504215479	-19.13479614	20.52831841	1.0
29	2.295179844	0	0	-2.03196907	-19.90816307	21.22241402	1.0
30	2.295179844	0	0	-2.027778149	-19.82431793	21.23609352	1.0
31	2.295179844	0	0	-1.96968019	-19.84529877	20.86767578	1.0
[RightShoulder]
28	-0.3601199985	1.946700096	-0.02662999928	-6.28976059	3.093825817	175.9687653	1.0
29	-0.3601199985	1.946700096	-0.02662999928	-7.012024403	2.583682537	176.2479248	1.0
30	-0.3601199985	1.946700096	-0.02662999928	-8.024105072	1.946324706	175.225769	1.0
31	-0.3601199985	1.946700096	-0.02662999928	-8.43888092	1.761709213	174.4560852	1.0
[RightArm]
28	-1.140689969	0	0	54.98267746	3.156810284	-108.5058975	1.0
29	-1.140689969	0	0	55.10884094	1.961836696	-107.9588089	1.0
30	-1.140689969	0	0	54.23358917	1.841508627	-105.9268494	1.0
31	-1.140689969	0	0	53.91622925	1.638035536	-104.152626	1.0
[RightForeArm]
28	-2.749800205	0	0	-109.5579987	45.3315506	30.38516998	1.0
29	-2.749800205	0	0	-107.4213104	45.24964905	31.43026161	1.0
30	-2.749800205	0	0	-107.3089218	45.84938431	31.68624878	1.0
31	-2.749800205	0	0	-105.956604	45.69864655	32.40581894	1.0
[RightHand]
28	-2.295179844	0	0	0.5207250714	17.55580902	155.438736	1.0
29	-2.295179844	0	0	0.6066522598	17.52547264	154.9547119	1.0
30	-2.295179844	0	0	1.035254717	17.45348549	154.7932129	1.0
31	-2.295179844	0	0	0.9538878202	17.48191452	154.982193	1.0
[LeftUpLeg]
28	0.9094099998	0	0	-13.57487488	2.301292658	98.83901978	1.0
29	0.9094099998	0	0	-11.4915123	6.821887493	97.58050537	1.0
30	0.9094099998	0	0	-13.95823956	7.705592155	96.50138855	1.0
31	0.9094099998	0	0	-18.0789566	6.49074316	96.1716156	1.0
[LeftLeg]
28	0	-4.498080254	0	29.75815964	3.144936085	80.83625793	1.0
29	0	-4.498080254	0	30.77038002	1.40238142	81.29262543	1.0
30	0	-4.498080254	0	37.4837265	-2.181091785	77.53358459	1.0
31	0	-4.498080254	0	44.21781921	-4.177609921	73.48402405	1.0
[LeftFoot]
28	0	-3.729400158	0	-50.42657471	103.0934067	-6.919849873	1.0
29	0	-3.729400158	0	-72.79810333	101.5594177	-23.51387024	1.0
30	0	-3.729400158	0	-70.4614563	105.908844	-12.92883205	1.0
31	0	-3.729400158	0	-65.55691528	109.1346664	-4.795286179	1.0
[LeftToeBase]
28	0	-0.5911099911	1.364109993	0	0	0	1.0
29	0	-0.5911099911	1.364109993	0	0	0	1.0
30	0	-0.5911099911	1.364109993	0	0	0	1.0
31	0	-0.5911099911	1.364109993	0	0	0	1.0
[RightUpLeg]
28	-0.9094099998	0	0	0.8629493117	-10.21084881	82.40771484	1.0
29	-0.9094099998	0	0	1.044546604	-8.784948349	82.16007996	1.0
30	-0.9094099998	0	0	-0.03704603016	-7.94320488	82.24147797	1.0
31	-0.9094099998	0	0	-1.966651082	-7.684075356	82.84372711	1.0
[RightLeg]
28	0	-4.498080254	0	26.27777863	1.539367437	86.05970764	1.0
29	0	-4.498080254	0	29.63941765	4.027733803	85.49101257	1.0
30	0	-4.498080254	0	35.26383209	2.741997004	81.57582092	1.0
31	0	-4.498080254	0	39.91657257	0.4019486308	78.57775879	1.0
[RightFoot]
28	0	-3.729400158	0	62.34811401	48.2393074	104.6070175	1.0
29	0	-3.729400158	0	51.19081879	47.89628601	97.60371399	1.0
30	0	-3.729400158	0	49.33074188	49.76774597	101.4528046	1.0
31	0	-3.729400158	0	49.71809006	52.29083633	104.1015778	1.0
[RightToeBase]
28	0	-0.5911099911	1.364109993	0	0	0	1.0
29	0	-0.5911099911	1.364109993	0	0	0	1.0
30	0	-0.5911099911	1.364109993	0	0	0	1.0
31	0	-0.5911099911	1.364109993	0	0	0	1.0
[EndOfFile]
